<svg width="76" height="76" viewBox="0 0 76 76" fill="none" xmlns="http://www.w3.org/2000/svg">
<rect width="76" height="76" rx="38" fill="#7B4DDA"/>
<path d="M38.1667 16C41.1061 16 43.9252 17.1677 46.0038 19.2462C48.0823 21.3248 49.25 24.1438 49.25 27.0833C49.25 30.0228 48.0823 32.8419 46.0038 34.9204C43.9252 36.999 41.1061 38.1667 38.1667 38.1667C35.2272 38.1667 32.4081 36.999 30.3296 34.9204C28.251 32.8419 27.0833 30.0228 27.0833 27.0833C27.0833 24.1438 28.251 21.3248 30.3296 19.2462C32.4081 17.1677 35.2272 16 38.1667 16ZM38.1667 43.7083C50.4137 43.7083 60.3333 48.6681 60.3333 54.7916V60.3333H16V54.7916C16 48.6681 25.9196 43.7083 38.1667 43.7083Z" fill="white"/>
</svg>
