<svg width="120" height="120" viewBox="0 0 120 120" fill="none" xmlns="http://www.w3.org/2000/svg">
<rect width="120" height="120" fill="#5A31A6"/>
<path d="M74.4994 70.7829H21.7666C21.5801 70.7805 21.3954 70.824 21.226 70.9103C21.0566 70.9965 20.9067 71.1233 20.7873 71.2815C20.6738 71.4451 20.5928 71.6332 20.5495 71.8337C20.5062 72.0341 20.5017 72.2423 20.5362 72.4448L25.1566 95.5175C25.3773 96.3991 25.8625 97.1722 26.5329 97.7105C27.2034 98.2488 28.0194 98.5205 28.8479 98.4812H67.4182C68.2466 98.5205 69.0627 98.2488 69.7331 97.7105C70.4035 97.1722 70.8887 96.3991 71.1095 95.5175L75.755 72.4448C75.7895 72.2423 75.7849 72.0341 75.7417 71.8337C75.6984 71.6332 75.6174 71.4451 75.5039 71.2815C75.3818 71.1196 75.2279 70.9906 75.0538 70.9042C74.8798 70.8178 74.6902 70.7763 74.4994 70.7829ZM62.5718 79.0924V90.1717C62.5718 90.7227 62.3733 91.251 62.0202 91.6406C61.667 92.0302 61.1879 92.2491 60.6884 92.2491C60.189 92.2491 59.7099 92.0302 59.3567 91.6406C59.0036 91.251 58.8051 90.7227 58.8051 90.1717V79.0924C58.8051 78.5414 59.0036 78.013 59.3567 77.6235C59.7099 77.2339 60.189 77.015 60.6884 77.015C61.1879 77.015 61.667 77.2339 62.0202 77.6235C62.3733 78.013 62.5718 78.5414 62.5718 79.0924ZM50.0163 79.0924V90.1717C50.0163 90.7227 49.8179 91.251 49.4647 91.6406C49.1115 92.0302 48.6325 92.2491 48.133 92.2491C47.6335 92.2491 47.1545 92.0302 46.8013 91.6406C46.4481 91.251 46.2497 90.7227 46.2497 90.1717V79.0924C46.2497 78.5414 46.4481 78.013 46.8013 77.6235C47.1545 77.2339 47.6335 77.015 48.133 77.015C48.6325 77.015 49.1115 77.2339 49.4647 77.6235C49.8179 78.013 50.0163 78.5414 50.0163 79.0924ZM38.7165 79.0924V90.1717C38.7165 90.7227 38.518 91.251 38.1648 91.6406C37.8117 92.0302 37.3326 92.2491 36.8331 92.2491C36.3337 92.2491 35.8546 92.0302 35.5014 91.6406C35.1482 91.251 34.9498 90.7227 34.9498 90.1717V79.0924C34.9498 78.5414 35.1482 78.013 35.5014 77.6235C35.8546 77.2339 36.3337 77.015 36.8331 77.015C37.3326 77.015 37.8117 77.2339 38.1648 77.6235C38.518 78.013 38.7165 78.5414 38.7165 79.0924ZM74.4994 56.9338H70.7328C70.6416 56.9329 70.5517 56.9102 70.4693 56.8671C70.3869 56.8241 70.314 56.7617 70.2557 56.6845L56.7963 39.4284C56.2535 38.7306 55.4816 38.2991 54.6504 38.229C53.8193 38.1589 52.9969 38.4558 52.3642 39.0545C51.7315 39.6532 51.3404 40.5046 51.2768 41.4214C51.2132 42.3383 51.4824 43.2454 52.0252 43.9433L61.2158 55.7704C61.2807 55.882 61.3152 56.0118 61.3152 56.1444C61.3152 56.2769 61.2807 56.4067 61.2158 56.5183C61.1668 56.6421 61.086 56.7475 60.9833 56.8213C60.8807 56.8951 60.7607 56.9342 60.6382 56.9338H35.5776C35.4551 56.9342 35.3351 56.8951 35.2325 56.8213C35.1299 56.7475 35.0491 56.6421 35 56.5183C34.9351 56.4067 34.9007 56.2769 34.9007 56.1444C34.9007 56.0118 34.9351 55.882 35 55.7704L44.1906 43.9433C44.7334 43.2454 45.0026 42.3383 44.939 41.4214C44.8755 40.5046 44.4843 39.6532 43.8516 39.0545C43.2189 38.4558 42.3966 38.1589 41.5654 38.229C40.7342 38.2991 39.9623 38.7306 39.4196 39.4284L26.0606 56.6845C25.997 56.7693 25.916 56.8361 25.8242 56.8794C25.7325 56.9228 25.6328 56.9414 25.5333 56.9338H21.7666C20.7677 56.9338 19.8096 57.3715 19.1032 58.1507C18.3968 58.9298 18 59.9866 18 61.0885V63.8583C18 64.9602 18.3968 66.017 19.1032 66.7962C19.8096 67.5753 20.7677 68.0131 21.7666 68.0131H74.4994C75.4984 68.0131 76.4564 67.5753 77.1628 66.7962C77.8692 66.017 78.266 64.9602 78.266 63.8583V61.0885C78.266 59.9866 77.8692 58.9298 77.1628 58.1507C76.4564 57.3715 75.4984 56.9338 74.4994 56.9338Z" fill="white"/>
<path d="M73.7275 84.9487V63.5281H72.2394V51.994H102V63.5281H100.512V84.9487H73.7275ZM75.2155 60.2326H99.0239V55.2894H75.2155V60.2326ZM82.6556 71.7668H91.5838V68.4713H82.6556V71.7668Z" fill="white"/>
<path d="M73.7275 53.9548V32.5342H72.2394V21H102V32.5342H100.512V53.9548H73.7275ZM75.2155 29.2387H99.0239V24.2955H75.2155V29.2387ZM82.6556 40.7729H91.5838V37.4774H82.6556V40.7729Z" fill="white"/>
</svg>
