<svg width="120" height="120" viewBox="0 0 120 120" fill="none" xmlns="http://www.w3.org/2000/svg">
<path d="M76.625 70.8237H15.375C15.1583 70.8209 14.9438 70.8714 14.747 70.9716C14.5502 71.0718 14.3762 71.2191 14.2375 71.4027C14.1056 71.5928 14.0115 71.8113 13.9613 72.0441C13.911 72.2769 13.9058 72.5188 13.9458 72.754L19.3125 99.5533C19.5689 100.577 20.1324 101.475 20.9112 102.1C21.6899 102.726 22.6377 103.041 23.6 102.996H68.4C69.3623 103.041 70.3101 102.726 71.0888 102.1C71.8676 101.475 72.4311 100.577 72.6875 99.5533L78.0833 72.754C78.1234 72.5188 78.1181 72.2769 78.0679 72.0441C78.0176 71.8113 77.9235 71.5928 77.7917 71.4027C77.6499 71.2148 77.4711 71.0649 77.269 70.9646C77.0668 70.8642 76.8466 70.816 76.625 70.8237ZM62.7708 80.4753V93.3441C62.7708 93.984 62.5404 94.5977 62.1301 95.0502C61.7199 95.5028 61.1635 95.757 60.5833 95.757C60.0032 95.757 59.4468 95.5028 59.0365 95.0502C58.6263 94.5977 58.3958 93.984 58.3958 93.3441V80.4753C58.3958 79.8353 58.6263 79.2216 59.0365 78.7691C59.4468 78.3166 60.0032 78.0624 60.5833 78.0624C61.1635 78.0624 61.7199 78.3166 62.1301 78.7691C62.5404 79.2216 62.7708 79.8353 62.7708 80.4753ZM48.1875 80.4753V93.3441C48.1875 93.984 47.957 94.5977 47.5468 95.0502C47.1366 95.5028 46.5802 95.757 46 95.757C45.4198 95.757 44.8634 95.5028 44.4532 95.0502C44.043 94.5977 43.8125 93.984 43.8125 93.3441V80.4753C43.8125 79.8353 44.043 79.2216 44.4532 78.7691C44.8634 78.3166 45.4198 78.0624 46 78.0624C46.5802 78.0624 47.1366 78.3166 47.5468 78.7691C47.957 79.2216 48.1875 79.8353 48.1875 80.4753ZM35.0625 80.4753V93.3441C35.0625 93.984 34.832 94.5977 34.4218 95.0502C34.0116 95.5028 33.4552 95.757 32.875 95.757C32.2948 95.757 31.7384 95.5028 31.3282 95.0502C30.918 94.5977 30.6875 93.984 30.6875 93.3441V80.4753C30.6875 79.8353 30.918 79.2216 31.3282 78.7691C31.7384 78.3166 32.2948 78.0624 32.875 78.0624C33.4552 78.0624 34.0116 78.3166 34.4218 78.7691C34.832 79.2216 35.0625 79.8353 35.0625 80.4753ZM76.625 54.7376H72.25C72.1441 54.7367 72.0397 54.7102 71.944 54.6602C71.8483 54.6102 71.7636 54.5378 71.6958 54.4481L56.0625 34.4049C55.4321 33.5943 54.5355 33.0932 53.5701 33.0117C52.6047 32.9303 51.6495 33.2752 50.9146 33.9706C50.1797 34.666 49.7254 35.6549 49.6515 36.7198C49.5777 37.7847 49.8904 38.8384 50.5208 39.649L61.1958 53.3864C61.2712 53.516 61.3113 53.6668 61.3113 53.8207C61.3113 53.9747 61.2712 54.1255 61.1958 54.2551C61.1389 54.3989 61.0451 54.5213 60.9259 54.607C60.8067 54.6928 60.6673 54.7382 60.525 54.7376H31.4167C31.2744 54.7382 31.135 54.6928 31.0158 54.607C30.8966 54.5213 30.8028 54.3989 30.7458 54.2551C30.6705 54.1255 30.6304 53.9747 30.6304 53.8207C30.6304 53.6668 30.6705 53.516 30.7458 53.3864L41.4208 39.649C42.0513 38.8384 42.364 37.7847 42.2901 36.7198C42.2163 35.6549 41.762 34.666 41.0271 33.9706C40.2922 33.2752 39.337 32.9303 38.3716 33.0117C37.4062 33.0932 36.5096 33.5943 35.8792 34.4049L20.3625 54.4481C20.2886 54.5466 20.1945 54.6242 20.088 54.6746C19.9815 54.7249 19.8656 54.7465 19.75 54.7376H15.375C14.2147 54.7376 13.1019 55.2461 12.2814 56.1511C11.4609 57.0561 11 58.2836 11 59.5634V62.7806C11 64.0605 11.4609 65.288 12.2814 66.193C13.1019 67.098 14.2147 67.6064 15.375 67.6064H76.625C77.7853 67.6064 78.8981 67.098 79.7186 66.193C80.5391 65.288 81 64.0605 81 62.7806V59.5634C81 58.2836 80.5391 57.0561 79.7186 56.1511C78.8981 55.2461 77.7853 54.7376 76.625 54.7376Z" fill="black"/>
<path d="M75.7284 87.2775V62.3971H74V49H108.567V62.3971H106.839V87.2775H75.7284ZM77.4567 58.5694H105.111V52.8277H77.4567V58.5694ZM86.0986 71.9665H96.4688V68.1387H86.0986V71.9665Z" fill="black"/>
<path d="M75.7284 51.2775V26.3971H74V13H108.567V26.3971H106.839V51.2775H75.7284ZM77.4567 22.5694H105.111V16.8277H77.4567V22.5694ZM86.0986 35.9665H96.4688V32.1387H86.0986V35.9665Z" fill="black"/>
</svg>
